<mxfile host="app.diagrams.net" agent="Mozilla/5.0 (Macintosh; Intel Mac OS X 10_15_7) AppleWebKit/537.36 (KHTML, like Gecko) Chrome/131.0.0.0 Safari/537.36" version="25.0.3">
  <diagram name="Страница — 1" id="5du1juvn_ypTDH0RCSgx">
    <mxGraphModel dx="737" dy="492" grid="1" gridSize="10" guides="1" tooltips="1" connect="1" arrows="1" fold="1" page="1" pageScale="1" pageWidth="827" pageHeight="1169" math="0" shadow="0">
      <root>
        <mxCell id="0" />
        <mxCell id="1" parent="0" />
        <mxCell id="kEVjkRarmASKC1qUSRKG-5" style="edgeStyle=orthogonalEdgeStyle;rounded=0;orthogonalLoop=1;jettySize=auto;html=1;entryX=-0.01;entryY=0.513;entryDx=0;entryDy=0;entryPerimeter=0;exitX=1;exitY=0.5;exitDx=0;exitDy=0;exitPerimeter=0;" edge="1" parent="1" source="kEVjkRarmASKC1qUSRKG-10" target="kEVjkRarmASKC1qUSRKG-15">
          <mxGeometry relative="1" as="geometry">
            <mxPoint x="340" y="230.5" as="sourcePoint" />
            <mxPoint x="560" y="232.5" as="targetPoint" />
          </mxGeometry>
        </mxCell>
        <mxCell id="kEVjkRarmASKC1qUSRKG-17" style="edgeStyle=orthogonalEdgeStyle;rounded=0;orthogonalLoop=1;jettySize=auto;html=1;" edge="1" parent="1" source="kEVjkRarmASKC1qUSRKG-6" target="kEVjkRarmASKC1qUSRKG-16">
          <mxGeometry relative="1" as="geometry" />
        </mxCell>
        <mxCell id="kEVjkRarmASKC1qUSRKG-6" value="title&lt;br&gt;enclosure url&lt;br&gt;description&lt;div&gt;&lt;br/&gt;&lt;/div&gt;" style="sketch=0;pointerEvents=1;shadow=0;dashed=0;html=1;strokeColor=none;labelPosition=center;verticalLabelPosition=bottom;verticalAlign=top;align=center;fillColor=#505050;shape=mxgraph.mscae.oms.assessments" vertex="1" parent="1">
          <mxGeometry x="450" y="30" width="47" height="50" as="geometry" />
        </mxCell>
        <mxCell id="kEVjkRarmASKC1qUSRKG-9" style="edgeStyle=orthogonalEdgeStyle;rounded=0;orthogonalLoop=1;jettySize=auto;html=1;entryX=1;entryY=0.5;entryDx=0;entryDy=0;entryPerimeter=0;exitX=0.51;exitY=-0.029;exitDx=0;exitDy=0;exitPerimeter=0;" edge="1" parent="1" source="kEVjkRarmASKC1qUSRKG-15" target="kEVjkRarmASKC1qUSRKG-6">
          <mxGeometry relative="1" as="geometry">
            <mxPoint x="590" y="198" as="sourcePoint" />
            <Array as="points">
              <mxPoint x="609" y="140" />
              <mxPoint x="610" y="60" />
              <mxPoint x="550" y="60" />
              <mxPoint x="550" y="55" />
            </Array>
          </mxGeometry>
        </mxCell>
        <mxCell id="kEVjkRarmASKC1qUSRKG-10" value="Server in United Kingdom" style="fontColor=#0066CC;verticalAlign=top;verticalLabelPosition=bottom;labelPosition=center;align=center;html=1;outlineConnect=0;fillColor=#CCCCCC;strokeColor=#6881B3;gradientColor=none;gradientDirection=north;strokeWidth=2;shape=mxgraph.networks.virtual_server;" vertex="1" parent="1">
          <mxGeometry x="280" y="188.85999999999999" width="80" height="87.27" as="geometry" />
        </mxCell>
        <mxCell id="kEVjkRarmASKC1qUSRKG-12" style="edgeStyle=orthogonalEdgeStyle;rounded=0;orthogonalLoop=1;jettySize=auto;html=1;entryX=-0.047;entryY=0.627;entryDx=0;entryDy=0;entryPerimeter=0;exitX=1;exitY=0.5;exitDx=0;exitDy=0;exitPerimeter=0;startArrow=classic;startFill=1;" edge="1" parent="1" source="kEVjkRarmASKC1qUSRKG-13" target="kEVjkRarmASKC1qUSRKG-10">
          <mxGeometry relative="1" as="geometry">
            <mxPoint x="130" y="239" as="sourcePoint" />
          </mxGeometry>
        </mxCell>
        <mxCell id="kEVjkRarmASKC1qUSRKG-13" value="&lt;span style=&quot;color: rgb(0, 102, 204);&quot;&gt;RSS App&lt;/span&gt;" style="sketch=0;aspect=fixed;pointerEvents=1;shadow=0;dashed=0;html=1;strokeColor=none;labelPosition=center;verticalLabelPosition=bottom;verticalAlign=top;align=center;fillColor=#00188D;shape=mxgraph.mscae.enterprise.application" vertex="1" parent="1">
          <mxGeometry x="40" y="215.5" width="80.15" height="54.5" as="geometry" />
        </mxCell>
        <mxCell id="kEVjkRarmASKC1qUSRKG-15" value="&lt;span style=&quot;background-color: rgb(251, 251, 251);&quot;&gt;Podcast Xml&lt;/span&gt;" style="image;sketch=0;aspect=fixed;html=1;points=[];align=center;fontSize=12;image=img/lib/mscae/CustomDomain.svg;" vertex="1" parent="1">
          <mxGeometry x="550" y="200.25" width="76.79" height="64.5" as="geometry" />
        </mxCell>
        <mxCell id="kEVjkRarmASKC1qUSRKG-16" value="" style="sketch=0;outlineConnect=0;fontColor=#232F3E;gradientColor=none;fillColor=#232F3D;strokeColor=none;dashed=0;verticalLabelPosition=bottom;verticalAlign=top;align=center;html=1;fontSize=12;fontStyle=0;aspect=fixed;pointerEvents=1;shape=mxgraph.aws4.question;" vertex="1" parent="1">
          <mxGeometry x="310" y="30" width="41" height="78" as="geometry" />
        </mxCell>
        <mxCell id="kEVjkRarmASKC1qUSRKG-18" style="edgeStyle=orthogonalEdgeStyle;rounded=0;orthogonalLoop=1;jettySize=auto;html=1;entryX=0.5;entryY=0;entryDx=0;entryDy=0;entryPerimeter=0;" edge="1" parent="1" source="kEVjkRarmASKC1qUSRKG-16" target="kEVjkRarmASKC1qUSRKG-10">
          <mxGeometry relative="1" as="geometry" />
        </mxCell>
      </root>
    </mxGraphModel>
  </diagram>
</mxfile>
